<?xml version="1.0" encoding="utf-8"?>
<!-- Generator: Adobe Illustrator 15.0.2, SVG Export Plug-In . SVG Version: 6.00 Build 0)  -->
<!DOCTYPE svg PUBLIC "-//W3C//DTD SVG 1.1//EN" "http://www.w3.org/Graphics/SVG/1.1/DTD/svg11.dtd">
<svg version="1.1" id="Layer_1" xmlns="http://www.w3.org/2000/svg" xmlns:xlink="http://www.w3.org/1999/xlink" x="0px" y="0px"
	 width="400px" height="300px" viewBox="0 0 400 300" enable-background="new 0 0 400 300" xml:space="preserve">
<g>
	<g>
		<g>
			<g>
				<g>
					<path fill="#EBF2F4" d="M29.534,53.704l0.037,2.735C29.636,56.188,29.641,55.435,29.534,53.704z"/>
					<path fill="#EBF2F4" d="M30.47,51.247l0.012-0.228C30.442,51.054,30.444,51.124,30.47,51.247z"/>
					<path fill="#EBF2F4" d="M238.533,53.737c-1.013,0.072-1.881,0.168-2.358,0.318C237.627,53.995,238.297,53.875,238.533,53.737z"
						/>
					<path fill="#EBF2F4" d="M373.451,77.702c-0.103-0.069-0.187-0.115-0.268-0.115C373.252,77.826,373.338,77.903,373.451,77.702z"
						/>
					<path fill="#EBF2F4" d="M29.962,85.694l0.07-1.246C29.8,84.194,29.819,85.386,29.962,85.694z"/>
					<path fill="#EBF2F4" d="M196.831,52.708c-0.139,0.071-0.263,0.149-0.332,0.252C196.691,52.862,196.771,52.784,196.831,52.708z"
						/>
					<path fill="#EBF2F4" d="M25.56,184.586c0.047,0.37,0.07,0.77,0.096,1.16C25.661,185.334,25.638,184.921,25.56,184.586z"/>
					<path fill="#EBF2F4" d="M354.238,110.215c0.104,0.571,0.207,0.89,0.31,1.047C354.488,110.623,354.393,110.156,354.238,110.215z
						"/>
					<path fill="#EBF2F4" d="M356.844,110.727c-0.752-8.217-1.501,1.757-2.296,0.536c0.215,2.194,0.067,6.867,0.669,4.659
						c-1.596,4.305,0.884,13.025-0.387,17.684c0.16,0.201,0.683-2.497,1.076,0.726c0.16,4.82-0.589,4.469-0.912,6.435
						c0.457,1.431,0.781,8.752,0.557,8.042c0.391,3.204,1.563-3.413,2.25,1.061c1.072,3.03,0.163,7.148,0.457,10.719
						c-0.75,4.294-0.523-4.284-0.883-6.065l0.492,12.149c-0.553,3.573-1.045-1.604-0.916-5.187
						c-0.681,4.844-0.059,11.086,0.819,12.517c-0.194,3.038,0.003,4.646-0.356,7.507c-0.49-2.846-2.021-2.669-2.281-7.13
						c0.096-7.338,1.174,2.661,1.401-3.581l-0.915-0.536c0.521-2.677-0.162-4.809-0.23-7.681c0.23-1.605,0.328,0.351,0.461,1.422
						c-0.07-5.188,0.418-9.314-0.625-13.231c-0.845,6.989,0.297,17.523-0.746,20.58l1.275,13.924c0.425,0,1.105-4.839,1.725-0.906
						c-1.073,1.616-1.564,5.726-1.754,11.097c1.17-1.982,1.046,8.579,1.988,5.884c-0.588-2.502,0.392-3.759,0.486-4.11
						c0.068,5.189,1.076,0.702,1.141,3.556c-0.258,9.481-0.748-0.351-1.168,8.953c-0.521-1.966-1.696-6.974-2.188-12.139
						c-0.52,0.359,0.07,5.165-0.52,7.338c0.617-3.052,1.107,2.133,1.369-0.378c0.49,7.515,1.7,16.268,1.962,25.379
						c-1.729-1.42-1.308-15.361-3.36-12.489c0.264,4.466,1.107,4.449,0.979,8.031c-1.039,3.038-0.125,10.542-0.094,16.635
						l0.521-2.695c0.213,1.158,0.238,2.809,0.197,4.506l-0.009,0.283l-0.009,0.094l-0.023,0.186l-0.054,0.355l-0.101,0.612
						l-0.229-0.27c0.108,0.265,0.218,0.554,0.326,0.867c-0.043,0.096-0.1,0.088-0.163,0.049c0.202,0.419,0.255,0.989,0.259,1.597
						c-1.023,0.007-2.258-0.12-3.266,0.072c0.017,0.423,0.506,0.432,1.05,0.346c0.553-0.086,1.081-0.265,1.525-0.217
						c0.183,0.096,0.749,0.231,1.305,0.413c0.188-0.186,0.427-0.29,0.724,0.502l0.002,0.224c-1.319,0.028-2.321,0.281-3.629,0.523
						l-1.022,0.177c-0.091,0.028-0.563,0.055-0.949,0.08l-1.203,0.07c-1.629,0.087-3.363,0.142-5.277,0.135l2.499,0.257
						c-2.499,0.588-5.891,0.295-9.639,0.332c-6.805-0.584,4.999-1.178,0.876-1.666c2.671-0.748,7.327,0.099,8.034-0.977
						l-4.284-1.174c-3.581,0.717-7.525-0.355-10.035-0.193l2.695,0.521c-0.531,0.913-3.03,0.228-4.292,0.099l1.811,1.334
						c3.923,0.23,6.606-0.943,9.46-0.164c-6.96,0.426-5.355,1.504-13.746,1.534c-0.378-0.52,1.615-0.192,2.486-0.584
						c-2.864-0.358-5.884,0.717-10.529,0.294c2.661-0.324,6.963-0.85,3.556-1.564l-2.492,1.008c-2.143-0.16-1.264-0.551-2.143-0.584
						c-3.052-0.193,0.702,1.044-4.118,0.785c-0.718-0.197-2.317-0.425-1.615-0.651c-5.538-0.035-2.663,0.325-7.839,0.815
						c4.635-0.002,4.814,1.527,0,1.693c-6.794-0.162-11.426,0.686-16.091-0.582l-3.038,0.653c1.951-0.946-4.3-0.327-6.451-0.487
						c-0.712-1.043,10.191,0.029,10.191-1.663c-4.466-0.163-2.519-0.685-1.079-1.14c-4.836,0.16-1.79,1.204-3.925,1.889
						c-0.009-0.424-8.233-0.129-5.38-1.042c-4.109-0.063-4.819,1.013-7.85,0.817c0.458-0.416,0.983-0.951,0.693-1.486
						c-0.358,0.352-4.24-0.08-4.993-0.111c0.71,0.197-1.423,0.883,2.146,0.589c-0.89,0.813-8.406,0.033-8.208,0.717
						c-0.373-0.941-7.694-0.194-11.445-0.584c0.37,2.217,6.957-0.847,8.22,0.976c-4.994,0.752-16.804,0.07-24.846,1.051
						c-6.96-0.422,0-0.848-1.426-1.664c6.422-0.359,8.037,0.293,13.586-0.102c-6.084-0.385-16.088-0.156-20.551,0.527
						c-6.628,0.099-7.357-2.211-15.399-1.655c1.071,0.712,0.895,0.878,3.407,1.142c-2.143,0.256-4.653,0-6.971,0
						c-1.423,0.453,3.582,0.549,0.367,0.944c-1.254-0.132-3.933-0.229-3.405-0.717l0.536-0.065
						c-7.681,0.652-5.557-1.727-12.158-0.357c0.533,0.357,1.966-0.097,3.582,0.133c1.246,0.551-2.845,1.332-5.902,1.563
						c0.546-0.49-2.677-0.096-4.817-0.258c-1.436-0.816,5.363-0.232,6.432-0.784l-5.905-0.128l1.243,0.128l-6.421,0.784
						c4.477-0.262,2.148,1.01,0.182,1.108c-4.461-0.163-8.938-0.323-8.402-1.237c-0.536,0.914-6.076,0.881-10.009,1.079
						c4.292,0.325,0.544,0.78-0.702,1.075l-6.44-0.909c6.791-0.263-1.434-0.815,0.163-1.437c1.958-0.945,6.076-0.459,9.658-0.329
						c-6.99-1.692-9.832,0.913-15.917,0.104c0-0.423,0.536-0.913,3.212-0.818c-1.072-0.289-5.541,0.818-9.655,0.331
						c1.08,0.294,3.405,1.14-0.694,1.498l-5.375-1.04c-6.258-0.229-2.14,1.108-7.311,1.596l3.389,0.717
						c-0.528,0.916-6.968,0-7.137,1.012c3.212,0.032,5.007-0.75,8.383-0.46c1.272,0.979-4.284,0.524-6.223,1.049
						c-6.984-0.425-5.548-0.458-10.746-1.239c-0.193-1.529,8.576-1.892,7.469-3.879c-6.786,0.263-16.618,0.754-21.079,0.17
						c-6.079,0.455-5.53,1.662-4.632,2.541c-2.513,0.164-3.75,0.031-5.363-0.193l2.851-0.492
						c-7.504,0.492-11.788,1.016-19.664,0.982c-4.45,0.264-2.658,1.177-1.589,1.893l-4.828,0.166l0.734,0.193
						c-1.077,0.979-5.366,0.653-8.581,0.619c-0.011-0.422,1.956-0.521,1.774-0.781c-2.854-0.357-7.151-0.258-9.465,0.166
						c-0.008-0.424,1.95-1.368,5.347-1.076c0.359,0.099,0.183,0.258,0.536,0.359l5.722-0.557
						c-6.609,0.523-10.553-0.551-10.384-1.562c-6.612,0.522,5.379,1.042-2.486,1.433c-1.824-0.349-3.615-0.558-5.359-0.68
						l-1.299-0.077l-1.134-0.05c-0.521-0.024-1.029-0.035-1.53-0.037c-1.979-0.009-3.969,0.111-5.437-0.069
						c0.153-1.523,0.52-3.049,1.36-4.307l-0.494-1.78l-0.264-1.094l-0.255-2.15c-0.327-2.97-0.588-6.276-0.62-10.031
						c-0.849,0-0.326-5.013-1.373-4.283c-0.552,3.581-0.143,6.931,0.208,10.102c0.176,1.586,0.337,3.127,0.357,4.631
						c0.005,0.376,0.001,0.75-0.014,1.121l-0.031,0.556l-0.048,0.4c-0.077,0.521-0.205,1.053-0.4,1.628
						c0.195,1.14,0.472,1.391,0.757,1.479c0.285,0.082,0.578,0.011,0.806,0.331c0.059,1.449-0.004,2.864-0.352,3.761
						c0.033,0.058,0.033,0.124-0.005,0.198l-0.218,0.024c-0.273-1.756-0.78-1.728-1.223-1.931c-0.443-0.21-0.822-0.753-0.839-4.207
						c-0.646,0.898-0.499,5.818-0.604,8.804l0.858,0.046c-1.15,0.391-0.821,0.846,0.882,1.172c-0.915,0.238-2.188,0.465-3.642,0.684
						c-0.41-1.888-0.793-4.49-1.177-6.183c0.392,0.798,0.621-1.091,0.851-0.399l-1.208-9.127c0.519-2.688,1.141-3.416,1.596-1.975
						c0.258-4.839-0.883-13.039,0.388-13.063c-0.198-6.25-0.751,1.982-1.109,2.519l-0.063-0.536l0.1,6.612
						c-1.467,0.729,0.355-7.515-1.047-8.57c-2.67-1.042,0.846-9.313,0.424-13.947l1.921,5.355l-0.423-4.653
						c0.75,2.676,2.018,2.668,2.803,6.767c0.062-6.424,0.646-15.554,0.286-19.672c0.653-1.604,1.273-2.314,1.923-1.604
						c-1.209-6.436,0.617-10.018,0.648-15.565c-0.717-5.884-0.977,5.907-1.922,1.623c0.488-1.781,0.096-5.004-0.098-6.609
						c0.355,1.782-0.293,8.046-0.619,12.343c0.035-3.223-0.91-2.864-1.301-3.759l-0.198,5.374c-1.171-0.351-0.095-6.608-0.685-9.104
						c1.043,1.589,1.076,0.71,2.118,2.302c-0.424-4.646-0.424-11.616,0.224-15.56c0.424-2.326,0.522,1.958,0.816,3.215
						c0.717-1.072-0.426-4.644,0.457-5.541c0.651,0.713,0.064,2.854,0.26,4.469l0.325-13.588c0.421,0,0.554,3.389,0.39,5.529
						c0.488-4.117,0.256-7.145-1.177-11.965c0.423-4.645,1.039-10.003,1.659-8.42c-0.26-2.141-0.65-0.71-1.076-0.694
						c0.229-6.266-1.271-6.96-1.304-10.711l-0.78,2.845c0.813-6.071-1.305-1.412-0.686-6.775c0.814,0.876,1.757,0.525,2.638-0.377
						c-0.813-0.887-0.099-4.292-0.099-6.612c-0.814,1.441-0.75-4.991-1.563-1.238c-0.656-5.372,0.452-7.866-0.592-11.799
						c-0.259,2.494-0.848-4.64-1.435-2.483c-0.063-5.197,0.912-8.769,1.795-7.356c-0.066,1.797-0.425,4.669,0.26,4.468l-0.164-9.462
						c0.422-2.344,0.615-5.366,1.559-5.741c-1.074-3.027,0.75-8.937-0.524-11.254c0.818,3.212-0.288,5.73-0.421,6.96l-0.18-1.465
						c0,0.211-0.016,0.45-0.048,0.764l-1.63-4.088c-0.648,3.93,1.073,0.699,1.042,6.255c-1.526,4.817-2.31-10.901-3.259-5.888
						c-0.487,4.107,0.979,3.386,1.535,6.775l0.033-0.887l0.652,7.684c-0.52,0.359-0.947-1.966-0.947-1.966
						c0.004,9.304-0.811,10.743-1.004,20.752c0.197-0.726,1.792-2.69,2.055,1.776c0.391,3.204-0.553,3.576-0.653,6.248
						c-0.192-1.597-1.075-3.03-0.487-5.171l-1.107,0.174c-1.338-7.496-2.412-3.563-2.807-13.746
						c-0.813-0.466-1.234-7.847-0.997-13.387l-0.731,2.687c-1.4-5.709,1.141-1.08-0.034-8.401c1.466-3.046,3.188-8.611,4.397-4.504
						c0.354-5.189-0.426-6.96-0.426-11.624c1.203-2.861,1.305,1.428,2.508,0.889c-0.133-3.408-0.652-7.691-1.336-5.168l0.484-6.457
						c0.26-0.171,0.26,2.141,0.23,3.046c0.26-2.51-0.328-7.333-0.783-8.752c0.063,0.53,0.262,2.151,0.063,2.853
						c-0.325-2.679-0.913-7.499-1.239-7.85c0.618,3.925-0.75,4.284,0.034,8.394c-0.325-0.351-0.978-1.056-0.815-3.204
						c-0.717,3.399-0.586,6.794-1.398,8.225c0.609-2.869-0.273-4.705-0.402-5.31c-0.233,2.572-0.01,7.694,0.338,9.42
						c-1.365,0.377,0.232,10.006-1.17,6.628c0.488,0.536,0.521,4.292,0.197,6.264c-0.59-0.18-0.912-5.176-1.599-7.319
						c-0.655-10.014,1.009,0.177,1.434-2.159l-0.099-7.641c-0.197,0.769-0.955-3.06-0.879,1.926
						c-0.85-2.317-1.438-7.137-0.785-11.067c-0.396-0.906-0.326,1.964-0.359,2.853c-0.392-0.889-1.828-5.709-2.053,0.549
						c0.064-1.79,0.652,3.038,1.107-0.182c0.162,2.502-0.42,9.296-1.172,6.609c0.228,3.046,0.785,8.76,0.949,11.263
						c-0.621,0.721-0.262-2.141-0.555-3.397l0.361,8.771l0.682-2.51c-0.488,6.43,1.143,10.534,1.637,15.712
						c-1.078-0.71-1.178-5.004-1.73-8.393c-1.305,3.242,0.682,2.135,0.488,7.506c-0.196,0.721-0.457,0.906-0.783,0.555l0.947,4.273
						c-0.129,1.249-0.36,0.544-0.424,0c1.176,7.33,1.531-0.182,2.023,9.65c0.551-5.918-0.75-5.023-0.652-10.009
						c0.781-2.88,1.4,5.698,1.854,7.14c-0.258,4.817-1.883,5.369-1.004,11.445c-0.521-4.284-1.012-0.177-1.045-6.25
						c-0.555-3.397-0.486,1.795-1.106,2.502c0.196,1.604,1.14-1.069,0.978,3.397l-0.16-0.177l1.172,7.313
						c-0.584,6.81,1.308,15.362,0.039,20.023l1.141-1.08c0.098,4.284,0.133,10.362,0.361,13.398
						c-0.652-0.702-0.717-3.566-0.945-6.601c-0.195,7.697,0.49,14.475,1.404,19.653c0.814-3.764,0.75-4.306,1.301-7.882
						c1.596,4.994-0.979,5.915-0.193,12.351c-1.107,0.177-0.945-1.967-2.021-0.359c0.753,2.677,0.592,7.153,1.244,10.191
						c-1.076,1.615-1.99-1.232-2.09-7.847c0.945-5.013-0.717-10.545,0.193-14.671l-0.687,2.511c-0.327-5.013-0.13-8.04-0.652-12.324
						l0.164,0.174l-1.108-2.141v2.317c-0.621-1.599-1.631-6.419-1.664-7.85c0.166,7.159,1.926,7.673,2.904,11.064
						c-0.066,6.441-2.018,8.961-1.072,13.246c-0.525,0.351-1.077,3.94-1.563,1.071c-0.298-3.563,0.387-6.076-0.364-6.427
						c0.035,3.756-0.421,2.325-0.288,8.04c0.979,1.079,1.926,5.355,2.707,9.446c0.523,4.294,0.49,9.843,0.194,13.25
						c-0.097-4.294-1.043-8.581-1.76-7.498c1.014,2.502-0.812,8.401,0.589,7.137c-0.096,5.002-0.061,13.414-1.266,13.958
						c-0.447-4.731,0.285-9.315,0.025-13.326c-0.027,1.104-0.331,2.187-0.615,1.535l0.129-5.907
						c-0.586,4.469-0.977,3.582-0.845,9.305c0.099-0.359,0.292-1.08,0.354-0.539l0.006,4.656l-1.107,0.177
						c0.52,4.284-0.879,12.527-0.063,20.375l-0.229-0.705c-0.228,6.256,1.956,6.781,2.221,13.575c-0.521-1.967-0.98-1.063-1.5-0.713
						c0.555,3.389-0.356,5.189-0.648,8.592c0.648-3.946,1.17,2.663,1.527-0.198c0.556-0.097,0.834,1.602,0.957,3.771
						c0.062,1.085,0.084,2.288,0.083,3.442l-0.058,4.648c-0.358,0.989-0.586,0.312-0.75-1.202l-0.363-4.357
						c-0.2-2.366-0.404-4.327-1.136-1.639c-0.129,3.571,0.683,4.466,0.944,1.953l-0.057,1.609l-0.063,3.135l-0.169,6.807
						c-0.141,4.602-0.35,9.187-0.696,12.864c0.585,0.067,1.123,0.141,1.607,0.219c5.636-0.539,9.144-0.662,12.269-0.825
						c3.086-0.163,5.754-0.367,8.789-1.068c-2.533,0.032-3.922,0.301-5.516,0.493c-1.58,0.192-3.397,0.307-6.52,0.03l7.387-1.043
						c1.123-0.009,2.212-0.002,3.277,0.017l1.518,0.037l0.889,0.052c1.171,0.077,2.284,0.189,3.347,0.307
						c2.125,0.236,4.049,0.496,5.836,0.561l-3.756,0.459l0.182-0.165c-1.431,0.458-6.258,0.196-5.714,0.978
						c3.389-0.977,6.084-0.031,10.545-0.717l-0.177,0.164c7.857-0.816,13.599,1.594,18.584-0.43c-1.431,0.033-4.3-0.748-3.405-1.138
						c1.8,0.485,6.62,0.321,6.449,0.91l-1.613,0.196c4.468,0.16,7.156,0.258,8.771,0.063c1.238-0.717-0.027-1.273,3.196-1.666
						c7.874,0.455-3.196,1.666,2.159,2.283l7.33-0.752l1.615,0.652c10.893,0.648,19.294-1.506,30.908-1.51
						c0.185,1.109-8.211,1.566-11.07,1.635c3.582,0.977,8.752-0.359,13.58,0.324c4.479,0.16,7.858-0.816,7.148-1.438
						c5.529-0.393,3.936,0.652,4.643,0.846c1.795-1.205,8.763-0.779,13.221-1.044l0.204,0.681l6.96-0.846
						c-1.79-0.068-0.185-0.683-0.188-1.107l1.785,0.064c-6.811-1.857-15.359,1.305-22.349-0.811c2.14-0.262-0.729-0.619,1.422-0.881
						c1.782,0.068,2.141,0.164,2.325,0.426c1.072-0.555,3.925-1.046,0.169-1.01c0.174-1.435,7.689-1.08,12.859-1.568
						c4.118,0.913-4.284,1.373-6.419,2.055c1.966-0.1,3.579-0.721,6.435-0.36l-0.702,1.073c7.14-0.588,1.95-0.94,3.563-1.984
						c1.942-1.371,6.43,0.061,8.394-0.037l-2.141,0.262c5.538,0.455,6.786-0.688,11.78-0.592l2.344,0.851
						c-6.277-1.075-7.67,1.499-11.255,0.948c9.122,1.008-1.958,2.213-4.812,3.127c3.941-0.197,7.507-0.068,9.65,0.518
						c5.723-1.402,11.992,0.519,17.513-1.146c3.038,0.194-2.668,0.752,0.546,0.784c5.896,0.127,12.155-0.07,18.405-0.689
						c3.23,0.032,2.679,0.521,3.582,0.975c15.557,0.648,21.622-1.926,38.61-1.313l-2.494,0.588c3.565,0.129,6.611,0.326,8.383-0.459
						c4.49,1.857,15.198-1.143,20.921,0.844c7.515,0.357,7.865-1.239,13.768-1.535c0,0.425-1.793,1.211,1.262,1.403
						c9.647-0.329,18.808-0.527,28.214-0.685l14.386-0.217l7.504-0.106l10.61-0.116c-0.243,0.162-2.062,0.295-2.98,0.359
						c5.666,0.037,11.306-0.034,16.71-0.157l-0.37-13.411l-0.205-6.394l-0.188-3.978c-0.229-4.883-0.353-9.563-0.129-13.932
						c-0.264-2.151-0.625-8.578-1.374-6.606c-0.101,2.674-1.04,3.041-1.626,2.864c-0.82-10.184,1.363-5.005,1.102-11.804
						c1.434-2.151,0.947,4.283,2.219,4.283l-0.914-9.832c0.451-5.54-0.36-11.08,0.318-15.908c-0.158,2.151,1.075,0.702,0.523,4.284
						c-0.063-0.544-0.16-0.18-0.229-0.721c-0.124,8.232,0.688,4.479,1.015,11.809c-0.362-6.442-0.722-15.195-0.431-20.92
						c-0.974,1.256-0.422-4.644-1.043-6.251l0.098-0.358c-0.424,0-0.717-3.556-0.848-4.646l1.238-1.431
						c-0.164-2.511-0.621,0.712-0.781-1.79c-0.295-3.555-0.432-16.267,0.873-17.162c-0.1-4.302-0.816-5.545-0.652-10
						c0.325,0.351,0.455,1.422,0.617,1.588c0.258-9.462-0.164-21.084,0.58-30.04c-0.328-7.311-0.525-13.572-1.373-18.207
						c0.098,1.964-0.193,7.692-0.91,4.11c-0.523-1.966-0.326-4.999-0.553-8.035c0.647,0.71,0.613-7.697,1.068-1.624
						c1.42-1.53-0.279-13.098,1.133-13.001c-0.433-1.422-0.182-10.052-0.941-13.283c0.619-0.718,0.426,4.662,0.85,4.651l-0.197-3.93
						h0.423c0.179-3.763-0.163-5.994-0.583-7.844l-0.323-1.333c-0.107-0.449-0.214-0.766-0.311-1.556
						c-0.193-1.367-0.351-2.762-0.416-4.452l0.165,0.222l-0.229-4.567c0.381,1.611,0.761,3.336,1.142,5.176
						c-0.126-5.908-0.733-9.253-1.123-13.773c-1.716,0.125-3.521,0.229-5.525,0.285l-0.566-0.361l-5.105,0.393
						c0.843-0.064,1.198-0.229,0.703-0.326c-1.276,0.269-2.833,0.445-4.521,0.571l-4.614,0.275
						c-2.479,0.144-4.935,0.267-6.361,0.723c-2.144-0.16-3.952-1.5-6.805-0.586l0.535-1.334c7.146-0.165,2.666,0.943,10.184,0.451
						c-5.549-1.723-21.103-1.523-31.471-1.396c-8.386,0.884-22.167-0.544-25.732,1.44l0.887-0.812l-14.116-0.681
						c-11.986,0.33-24.314-0.287-33.429,0.819l-2.508-0.679c-9.452,2.279-32.176,0.949-38.407,3.688
						c-5.358-0.615,1.607-1.043,2.144-1.531c-3.943-0.225-10.545,1.568-14.306,0.33c0-0.422,5.54-0.394,3.038-0.652
						c-2.861-0.781-4.099,0.781-7.33-0.096c1.431,0.813-5.181,1.76-9.993,1.923c0.889,0.034,0.889,0.034,1.265,0.13
						c0.707,0.621-2.877,0.492-4.844,0.588c0,0,0.182-0.16,0.712-0.229c-24.824,1.051-53.244,1.545-79.348,0.772l4.806-0.589
						c-3.745,0.454-10.378,0.133-12.511-0.029l0.546-0.064c-6.976-1.27-7.866,1.236-13.234-0.227l1.061-0.133
						c-8.401,0.037-13.396-1.33-21.615-0.613c-6.451-0.486-5.744-1.139-10.212-1.723c-3.756,0.029-5.519,0.816-5.712,0.978
						l1.8,0.066c1.961,0.747-3.933,0.618-6.612,0.944c1.966,1.172,0.906,2.998,8.428,4.201c5.535-0.391,5.379,1.889,11.632,1.693
						c3.563-1.564,8.948,1.167,14.649-0.232c-3.033,1.074,6.794,0.584,1.811,1.758c2.325,0.848,12.141-0.917,16.626,0.094
						c-0.729,0.232-0.552,0.488-1.618,0.621c6.264-0.621,4.292,0.748,8.943,0.746l-0.182-1.107c1.795-0.359,2.336,0.421,3.933,0.229
						c-1.264-0.133-3.933-0.652-2.518-1.107c2.143-0.262,3.933-0.622,6.253-0.622c0.027,0.424-1.591,0.618-2.679,0.751
						c0,0,5.021,0.098,5.374,0.617c-1.79,0.357-4.115,0.357-5.701,0.979c6.601,0.325,0.53,0.357,3.75,1.234
						c-0.9-1.3,5.723-0.555,9.291-0.848c0.364,0.522-2.508,0.164-3.392,0.556c6.81,2.28,10.196-0.394,18.946,0.093
						c-0.177,0.162-1.249,0.295-1.795,0.359c4.125-0.359,6.998,0.846,9.666,0.094c3.943,0.229,0.723,1.471,6.805,1.434
						c-1.79-1.334,7.158,0.258,7.314-1.174l4.661,0.843c4.121-0.78-1.098-2.409,6.95-2.542c7.33,0.521-0.691,2.35,3.59,3.094
						l1.795-0.782l3.584,0.554l-0.546,0.066c2.148-0.26,6.071-0.034,6.082,0.387c-0.348,0.328-2.685,0.328-3.017,0.654
						c3.552-0.717,14.113,1.949,17.853-0.201c2.111,0.379,6.451,0.372,5.899,1.055c1.913-0.949,9.521,0.296,12.35-0.31
						c-0.364,0.326,2.326,0.847,4.469,0.589c-2.872-0.357-1.071-0.717,0.879-1.24c2.519,0.686,9.666,0.098,10.748,1.236
						c3.934-0.621,2.492-1.434,3.36-2.25c2.523,0.684,10.571,0.551,9.146,1.854c-2.153-0.158-6.986-0.42-6.076,0.459
						c4.115,0.484,1.785-0.359,5.171-0.49c-0.252,0.237,2.304,0.804,1.656,1.182c1.998-0.141,4.801-0.129,7.651,0.09
						c-4.458-0.59,2.85-0.914,0.171-1.434l-4.275,0.945c-5.192,0.064-1.094-0.715-3.055-1.043c9.12-0.264,7.319-1.6,15.893-2.22
						c1.607,0.226,4.469,0.584,5.369,0.618c-2.861,0.065-2.315,1.271-0.687,1.498c4.79-1.012,8.573,0.646,12.506,0.875
						c-3.407-0.292-1.612-1.072-0.364-1.367c8.214-0.717,3.221,0.454,6.805,1.008c12.672-0.134,20.733,1.43,30.908,0.613
						l-4.822-1.109l-1.604,1.043c-3.759-0.813,0.693-2.345,2.834-3.027c0.544,0.357,6.806,0.16,4.306,0.748l6.081-0.457
						c-0.905-0.457-4.838-0.26-1.998-0.751c1.998,0.326,8.238,0.554,4.315,1.174c3.213,0.03,7.319-0.327,6.609-0.946
						c5.179-0.064-0.535,1.336-2.845,1.76c4.102,0.064,3.573,0.975,2.333,1.27l5.707-0.131c-1.243,0.289-1.243,0.715-2.481,1.006
						c3.754,0.393,6.433-0.779,9.64,0.1l1.434-0.884l9.745,0.705c1.118,0.067,2.215,0.115,3.636,0.152l1.132,0.026
						c0.136,0.008,0.098,0.016,0.158,0.023l0.248,0.039c0.038-0.218,0.046-0.436,0.024-0.654c0.473-0.416,0.811-0.406,0.868-0.241
						c0.077,0.165-0.046,0.484-0.086,0.686c-0.166,0.311-0.253,0.479-0.11,0.649c0.099,0.075,0.191,0.174,0.29,0.282
						c0.1,0.187,0.206-0.084,0.333,1.016c0.254,1.497,0.588,2.21,1.109,1.846c0.391,3.204-0.23,3.933-0.621,5.374
						c0.588,2.492,1.666,7.847,1.016,11.78c-0.325-2.676-0.588-4.819-0.754-7.322c-1.038,0.729-0.225,8.578-0.713,12.686
						c0.492,2.864,1.764,12.16,2.676,17.331c0.849-2.336,2.086-1.449,2.936,3.196c-0.652-0.713-0.652,6.266-1.109,9.47
						c-0.615-1.588-1.523,7.164-1.787,0.386c0.322-1.966,1.205-2.869,0.877-5.556c-0.651,1.615-1.4,5.92-1.986,10.387
						c-0.327-0.343-0.747-2.676-0.747-4.997C356.385,111.641,356.582,110.906,356.844,110.727z"/>
					<path fill="#EBF2F4" d="M29.962,85.694l-0.044,0.729l0.243-0.895C30.078,85.826,30.015,85.826,29.962,85.694z"/>
					<path fill="#EBF2F4" d="M356.453,245.674c0.043,0.105,0.193,0.356,0.325,0.44C356.693,245.943,356.595,245.791,356.453,245.674
						z"/>
					<path fill="#EBF2F4" d="M273.886,247.835c0.104,0.093,0.124,0.185,0.166,0.274
						C274.133,248.045,274.114,247.963,273.886,247.835z"/>
					<path fill="#EBF2F4" d="M37.329,79.391l0.211,1.739C37.544,80.497,37.429,80.2,37.329,79.391z"/>
				</g>
			</g>
		</g>
	</g>
</g>
<g>
	<g>
		<g>
			<g>
				<g>
					<path fill="#EBF2F4" d="M358.979,42.218l-0.804,0.748C358.293,42.948,358.524,42.753,358.979,42.218z"/>
					<path fill="#EBF2F4" d="M360.336,42.277c0.024-0.011,0.053-0.042,0.076-0.051C360.376,42.206,360.356,42.226,360.336,42.277z"
						/>
					<path fill="#EBF2F4" d="M90.016,104.151c-0.357-0.208-0.684-0.36-0.927-0.369C89.572,104.113,89.854,104.196,90.016,104.151z"
						/>
					<path fill="#EBF2F4" d="M151.45,131.788c-0.087,0.06-0.156,0.112-0.208,0.174C151.358,131.972,151.438,131.926,151.45,131.788z
						"/>
					<path fill="#EBF2F4" d="M349.578,50.958c0.142-0.094,0.283-0.195,0.423-0.275C349.926,50.441,349.578,50.77,349.578,50.958z"/>
					<path fill="#EBF2F4" d="M77.926,92.551c-0.089,0.018-0.177,0.046-0.265,0.106C77.783,92.633,77.858,92.594,77.926,92.551z"/>
					<path fill="#EBF2F4" d="M316.763,73.656c-0.081,0.132-0.187,0.255-0.288,0.377C316.604,73.929,316.713,73.803,316.763,73.656z"
						/>
					<path fill="#EBF2F4" d="M148.969,154.874c0.242,0.069,0.406,0.073,0.521,0.035
						C149.255,154.789,149.051,154.741,148.969,154.874z"/>
					<path fill="#EBF2F4" d="M150.811,153.02c-3-1.558-0.433,1.601-1.321,1.89c0.81,0.405,2.144,1.729,1.858,0.698
						c0.285,2.334,4.555,2.704,5.159,4.881c0.165-0.069-0.322-1.168,0.918-0.632c1.578,1.128,0.986,1.607,1.378,2.364
						c0.733,0.022,3.183,1.674,2.82,1.661c1.233,0.533-0.033-2.077,1.78-1.441c1.62-0.031,2.292,1.729,3.574,2.432
						c0.828,1.686-1.649-0.712-2.426-0.899l4.035,2.775c0.735,1.349-1.167,0.381-2.179-0.646c1.042,1.775,3.353,2.92,4.358,2.621
						c0.804,0.936,1.423,1.202,2.065,2.219c-1.187-0.364-2.124,0.85-3.656-0.109c-2.183-1.976,1.573-0.205-0.189-1.997l-0.755,0.559
						c-0.482-1.091-1.576-1.124-2.499-1.816c-0.342-0.592,0.32-0.159,0.733,0.018c-1.633-1.292-2.579-2.734-4.452-2.955
						c1.592,2.457,5.552,4.318,5.813,5.906l5.083,2.639c0.275-0.324-0.765-2.099,0.838-1.551c-0.2,1.237,0.739,2.678,2.26,4.216
						c0.15-1.406,3.3,1.427,3.085,0.009c-1.146-0.2-0.896-1.273-0.943-1.437c1.632,1.294,0.911-0.639,1.825,0.052
						c2.733,2.655-0.591,0.479,1.983,3.213c-0.939-0.112-3.23-0.515-5.127-1.479c-0.227,0.489,1.625,1.286,1.908,2.3
						c-0.534-1.263,1.369-0.292,0.77-1.143c2.615,1.575,6.075,2.922,9.031,5.085c-1.553,0.951-5.544-2.986-5.994-0.676
						c1.537,0.957,2.078,0.31,3.09,1.337c0.128,0.79,0.915,1.497,1.903,2.201l0.38,0.265c0.142,0.099,0.214,0.137,0.485,0.342
						l1.375,1.018c0.917,0.681,1.818,1.362,2.643,2.052l-1.183-1.687c1.429,0.653,3.484,2.823,4.894,4.146l-0.438-0.071l1.486,0.832
						c0.208,0.232,0.246,0.34,0.228,0.407c0.999,0.423,2.746,1.981,4.659,3.642c1.24-1.052,2.547-2.179,3.663-3.312
						c-0.144-0.86-2.187,1.628-3.665,3.015c-0.203-0.158-0.393-0.316-0.56-0.474c-0.397-0.593-2.949-3.226-1.631-2.874
						c0.771,0.653,1.494,1.195,2.181,1.671c2.328-2.39,4.161-4.774,6.913-7.139l-1.226,0.726c0.913-1.573,2.491-2.558,4.146-4.045
						c1.678-1.071,1.34-0.388,0.765,0.487c-0.562,0.862-1.354,1.91-0.228,1.253c-0.441,0.88-1.37,1.654-2.142,2.348
						c-0.776,0.696-1.411,1.323-1.405,2.031c0.863-0.232,1.77-0.502,2.719-0.809c0.797-1.168,1.819-1.938,2.854-2.629l1.452-0.941
						c0.279-0.155,0.521-0.316,0.684-0.512l-0.578,0.158c-0.217,0.073-0.323,0.051-0.667,0.235
						c-0.093-0.524,0.052-0.726,0.365-0.901c0.306-0.168,0.724-0.262,0.957-0.38l-1.424-0.529c-0.167,0.106-0.314,0.226-0.446,0.352
						c-0.065,0.063-0.128,0.128-0.187,0.193l-0.291,0.309c-0.378,0.415-0.711,0.838-1.043,1.237
						c-0.661,0.797-1.332,1.511-2.228,1.773c1.634-1.703,2.063-2.574,2.579-3.456l0.391-0.647c0.085-0.169,0.188-0.347,0.324-0.539
						c0.271-0.384,0.669-0.826,1.299-1.384c0.455,0.293-0.362,0.57-0.369,1.095c1.102-0.483,1.31-2.089,2.993-2.992
						c-0.592,0.944-1.55,2.474-0.049,2.116l0.093-1.416c0.753-0.443,0.743,0.083,1.031-0.123c1.051-0.657-0.897-0.604,0.731-1.677
						c0.347-0.04,0.979-0.289,0.916,0.067c1.698-1.431,0.592-0.946,1.837-2.679c-1.401,1.222-2.459,0.114-1.111-1.277
						c2.163-1.665,3.008-3.524,5.251-3.795l0.491-1.292c0.03,1.228,1.516-0.885,2.271-1.33c0.9,0.6-3.103,2.659-1.992,3.937
						c1.458-1.052,1.211-0.146,1.074,0.576c1.358-1.394-0.248-1.38-0.052-2.458c0.281,0.317,2.576-2.068,2.312-0.629
						c1.285-1.034,0.794-2.032,1.84-2.683c0.134,0.435,0.326,0.977,0.765,1.305c-0.122-0.36,1.336-1.056,1.585-1.23
						c-0.345,0.038-0.149-1.04-1.036,0.12c-0.265-0.848,2.522-2.236,2.014-2.7c0.73,0.612,2.456-1.878,3.847-2.571
						c-1.566-1.575-1.55,2.47-3.128,1.427c1.019-1.881,5.039-4.474,6.83-7.33c2.383-1.513,0.556,0.64,1.522,0.881
						c-1.707,1.961-2.624,1.894-4.044,3.651c2.093-1.311,4.971-4.115,5.873-5.806c1.94-1.818,3.677-0.268,5.746-2.803
						c-0.792-0.255-0.847-0.427-1.78,0.035c0.48-0.757,1.408-1.224,2.109-1.834c0.133-0.716-1.444,0.528-0.73-0.616
						c0.466-0.23,1.34-0.861,1.5-0.355l-0.119,0.19c1.896-2.513,2.814-0.159,3.914-2.929c-0.396-0.129-0.532,0.59-1.171,0.842
						c-0.738-0.088-0.014-1.754,0.761-2.732c0.156,0.514,0.872-0.632,1.627-1.073c0.97,0.238-1.471,1.586-1.433,2.284l1.871-1.457
						l-0.46,0.23l1.429-2.282c-1.184,1.375-1.313-0.196-0.782-0.788c1.456-1.051,2.916-2.108,3.354-1.277
						c-0.438-0.831,1.261-2.263,2.321-3.448c-1.513,0.884-0.677-0.446-0.493-0.996l2.546-1.008
						c-1.883,1.985,0.969,0.238,0.893,1.127c0.027,1.229-1.537,1.945-2.707,2.79c3.227-0.562,2.377-3.276,4.748-4.267
						c0.277,0.319,0.438,0.83-0.435,1.463c0.514-0.064,1.14-2.076,2.704-2.791c-0.52,0.063-1.777,0.036-0.772-1.313l2.309-0.629
						c2.044-1.474-0.079-1.399,1.165-3.128l-1.495,0.351c-0.441-0.83,2.108-1.833,1.496-2.642c-0.994,0.821-1.023,1.884-2.235,2.553
						c-1.028-0.404,0.952-1.523,1.195-2.429c2.392-1.517,1.979-1.114,4.064-1.892c1.063,1.103-1.354,3.684,0.285,4.892
						c1.881-1.983,4.534-4.941,6.268-5.674c1.541-1.943,0.582-2.709-0.266-3.136c0.652-0.785,1.114-1.011,1.75-1.266l-0.54,1.122
						c1.948-2.346,2.9-3.868,5.306-5.916c1.174-1.37,0.032-1.587-0.761-1.846l1.353-1.396l-0.35,0.047
						c-0.315-1.022,1.195-1.905,2.19-2.725c0.28,0.315-0.249,0.908-0.023,1.056c1.098-0.481,2.333-1.687,2.755-2.616
						c0.28,0.318,0.308,1.546-0.912,2.219c-0.173,0.02-0.224-0.146-0.397-0.13l-1.367,1.926c1.657-2.134,3.556-2.361,4.167-1.554
						c1.658-2.134-2.312,0.629-0.188-1.735c4.441-1.234,5.584-5.595,9.18-4.969c1.071-1.71,2.158-3.955,4.389-5.979
						c-0.557-0.641,1.303-1.565,0.396-2.164c-2.893,1.052-2.981,4.758-5.745,5.09c-0.713,1.138,0.084,1.395-0.053,2.117
						c-0.816,0.8-1.692,1.435-2.147,1.137c1.657-2.135-0.809-2.016,1.709-4.251c-0.794-0.261-2.681,1.727-3.724,2.378
						c0.012-0.528-0.561-0.633-1.37-0.362c0.202-1.082,1.271-2.79,1.642-3.894c-0.01,0.527,0.63,0.275,0.562,0.639l1.856-3.215
						c1.153-0.316,1.782-0.038,1.645,0.685c1.634-1.079,3.366-4.097,4.208-3.145c1.761-1.794-1.093-0.045-1.49-0.174l0.12-0.189
						l-1.936,1.815c-1.183-0.916,2.508-1.709,1.907-3.045c-1.437-2.289,3.373-1.812,4.498-3.35l-0.36,2.858l1.131-1.543
						c-0.317,1.271,0.517,2.225-0.209,3.896c1.984-1.644,5.131-3.606,6.142-4.96c0.914,0.071,1.536,0.352,1.747,1.029
						c1.154-2.605,3.437-2.17,5.136-3.606c1.31-2.089-2.429,0.817-1.752-1.023c0.859-0.1,1.577-1.245,1.936-1.813
						c-0.306,0.737-2.627,1.896-4.142,2.78c0.999-0.822,0.27-1.44,0.284-1.971l-1.756,1.265c-0.662-0.976,1.938-1.811,2.306-2.912
						c0.203,1.205,0.491,0.999,0.693,2.204c1.127-1.542,3.237-3.376,4.855-3.925c0.981-0.292-0.25,0.909-0.438,1.462
						c0.795,0.259,1.126-1.543,1.977-1.113c0.212,0.679-0.821,0.799-1.182,1.372l4.325-3.33c0.276,0.317-0.662,1.31-1.418,1.749
						c1.566-0.715,2.33-1.687,2.849-4.036c1.684-0.903,3.709-1.848,3.637-0.963c0.478-0.759-0.212-0.677-0.496-0.995
						c2.046-1.476,1.272-2.791,2.386-3.802l-1.373,0.16c2.37-0.984-0.429-1.356,1.601-2.3c0.27,0.845,0.994,1.464,1.845,1.891
						c-0.265-0.847,1.234-1.204,1.937-1.814c-0.971-0.235,1.019-1.879-0.651-1.505c1.195-1.909,2.677-1.729,3.183-3.551
						c-0.925,0.461,0.848-1.86-0.19-1.736c1.531-1.416,3.252-1.619,3.404-0.581c-0.588,0.423-1.691,0.908-1.182,1.372l2.756-2.614
						c0.986-0.298,2.027-0.947,2.76-0.334c0.211-1.607,3.196-1.786,3.062-3.357c-0.435,1.463-1.923,1.291-2.382,1.514l0.325-0.521
						c-0.063,0.056-0.146,0.106-0.263,0.165l0.168-2.306c-1.614,0.545,0.493,0.994-1.209,2.433
						c-2.459,0.115,1.783-4.611-0.356-4.009c-1.563,0.713-0.382,1.63-1.043,2.941l0.29-0.208l-1.897,2.514
						c-0.449-0.298-0.026-1.232-0.026-1.232c-2.813,2.451-3.782,2.215-6.938,4.703c0.35-0.042,1.99,0.645,0.811,2.018
						c-0.713,1.138-1.445,0.524-2.319,1.151c0.357-0.565,0.212-1.609,1.245-1.729l-0.779-0.79c1.391-2.982-0.504-2.758,2.318-5.735
						c-0.392-0.736,1.564-2.997,3.396-4.275l-1.293,0.155c0.81-2.559,1.075,0.577,2.521-2.236c1.884,0.305,4.697,0.141,4.248,2.134
						c1.803-1.098,1.827-2.153,3.238-3.38c1.655,0.155,0.424,1.36,1.376,2.126c0.944-0.997,1.9-2.516,0.688-2.368l2.271-1.333
						c0.223,0.151-0.477,0.759-0.771,0.975c0.931-0.464,2.004-2.177,2.135-2.894c-0.118,0.188-0.479,0.764-0.821,0.799
						c0.598-0.95,1.67-2.662,1.563-3c-0.782,1.499-1.789,0.561-2.518,2.234c-0.107-0.338-0.322-1.016,0.435-1.458
						c-1.499,0.354-2.44,1.345-3.407,1.108c1.269-0.295,1.244-1.444,1.344-1.701c-0.932,0.501-2.335,2.017-2.629,2.733
						c-1.011-0.931-2.876,2.809-2.773,0.861c0.158,0.509-0.958,1.522-1.767,1.797c-0.332-0.492,0.968-2.05,1.166-3.132
						c2.601-3.129,0.608,0.808,1.595,0.514l2.247-2.084c-0.362,0.053,0.299-1.526-1.159-0.157c0.144-1.251,1.216-2.962,2.834-3.504
						c0.014-0.538-0.809,0.271-1.1,0.479c0.012-0.529,0.528-2.882-1.514-1.404c0.584-0.422-0.491,1.292,0.782,0.788
						c-0.65,0.781-3.089,2.129-2.769,0.854c-0.772,0.973-2.137,2.897-2.786,3.68c-0.625-0.279,0.477-0.761,0.664-1.312l-2.417,2.581
						l1.207-0.146c-2.267,1.323-2.438,3.634-3.681,5.37c-0.493-1,0.741-2.206,1.404-3.515c-1.837-0.131-0.199,1.077-1.951,2.344
						c-0.347,0.042-0.574-0.106-0.682-0.445l-0.672,1.839c-0.463,0.231-0.401-0.129-0.278-0.32c-1.446,2.816,1.06,1.108-1.593,4.066
						c2.152-1.141,1.028-1.888,2.602-3.125c1.384-0.168-0.806,2.556-0.944,3.277c-1.627,1.073-2.86-0.008-4.123,2.253
						c0.955-1.521-0.609-0.81,1.206-2.433c0.664-1.312-0.862,0.105-1.483-0.176c-0.356,0.57,1.071,0.579-0.386,1.631l-0.052-0.167
						l-1.444,2.809c-2.444,1.351-3.791,5.029-6.034,5.298l1.075,0.577c-1.232,1.201-3.049,2.827-3.817,3.798
						c-0.216-0.677,0.609-1.479,1.378-2.45c-2.458,1.878-4.06,4.179-5.026,6.231c1.674-0.376,1.795-0.567,3.238-1.092
						c-0.464,2.518-2.432,0.818-3.864,3.104c-0.78-0.789-0.025-1.23-1.218-1.62c-0.315,1.272-1.776,2.329-2.268,3.62
						c-1.195-0.387-0.933-1.826,1.004-3.642c2.137-0.605,2.721-3.315,4.566-3.714l-1.211,0.143c1.303-1.566,2.349-2.213,3.302-3.735
						l0.055,0.169l-0.079-1.399l-0.701,0.61c0.076-0.89,0.872-2.92,1.283-3.321c-2.058,2.009-1.059,3.472-1.442,5.103
						c-1.993,1.645-4.036,0.835-4.712,2.676c-0.451-0.304-1.899,0.224-1.35-0.897c0.883-1.163,2.093-1.307,1.706-1.966
						c-1.113,1.015-0.979,0.294-2.622,1.898c0.315,1.022-0.357,2.862-1.082,4.528c-0.957,1.525-2.657,2.959-3.883,3.633
						c1.236-1.203,1.912-3.045,1.114-3.301c-0.092,1.423-3.074,1.598-1.773,2.322c-1.576,1.244-4.099,3.484-5.054,2.717
						c1.138-1.583,3.006-2.236,4.049-3.487c-0.352,0.27-0.879,0.325-0.868-0.061l1.872-1.457c-1.736,0.733-1.725,0.206-3.369,1.811
						c0.173-0.02,0.518-0.063,0.396,0.126c-0.41,0.4-0.993,0.825-1.405,1.229l-0.78-0.789c-0.956,1.519-4.368,2.633-6.207,5.313
						l0.063-0.358c-2.042,1.475-0.769,3.26-2.65,5.248c0.253-0.911-0.322-1.02-0.769-1.319c-0.662,1.311-1.805,1.097-3.026,1.771
						c1.62-0.549-0.038,1.583,1.063,1.101c0.788,0.788-1.326,2.627-2.493,3.47c-1.587-0.518,2.839-3.509,0.251-3.198
						c-1.165,0.842-0.903,1.69,0.029,1.227c-1.46,1.053-3.621,2.721-5.177,2.906c-0.91,2.22-1.943,2.341-2.052,4.293
						c0.824-0.801,0.211-1.609,1.659-2.136l-0.505,1.821c-1.522,1.415-3.369,1.812-4.535,2.654l0.836-1.334l0.053,0.172
						c0.133-0.722,1.765-1.794,1.088-2.241c-0.385,1.629-1.82,1.625-2.721,3.315l-0.055-0.17c-1.842,2.684-5.16,2.375-5.342,5.214
						c0.411-0.401,1.792-0.567,1.777-0.038c-0.863,0.107-2.215,1.5-2.549,1.01l0.359-0.573c-1.457,1.055-2.335,1.688-2.695,2.261
						c0.096,0.867,0.844,0.954,0.126,2.098c-2.682,1.729-0.126-2.098-2.151-1.155l-1.725,2.496l-0.917-0.067
						c-3.723,2.377-4.852,6.213-8.363,9.272c-0.784-0.789,1.457-3.342,2.277-4.146c-1.725,0.205-2.413,2.574-4.322,3.328
						c-1.461,1.058-1.842,2.684-1.22,2.966c-1.416,1.751-1.619,0.543-1.96,0.583c0.247,1.382-2.141,2.894-3.315,4.267l-0.509-0.46
						l-1.552,2.47c0.587-0.419,0.504,0.466,0.784,0.786l-0.583,0.421c3.28-0.39,3.792-5.026,7.295-5.269
						c-0.476,0.761,0.627,0.275,0.147,1.039c-0.584,0.417-0.755,0.439-0.982,0.291c0.039,0.7-0.502,1.822,0.611,0.806
						c0.889,1.128-1.618,2.838-2.862,4.567c-1.846,0.394,0.396-2.164,0.594-3.24c-0.529,0.593-0.609,1.486-1.711,1.965l-0.491-0.995
						c-1.775,2.322,0.026,1.223,0.224,2.435c0.312,1.545-1.985,1.646-2.516,2.236l0.476-0.761c-1.974,1.114-1.603,2.304-3.176,3.546
						l-1.268-0.025c2.604-0.84,1.337-3.149,2.783-3.677c-3.422,1.64-0.859-2.186-0.596-3.626c-1.063,1.186-2.227,2.027-3.26,2.148
						c-0.812,2.564-3.969,2.764-4.548,5.473c-1.047,0.653,0.314-1.27-0.68-0.448c-1.868,1.456-3.633,3.251-5.117,5.363
						c-0.999,0.826-1.152,0.312-1.724,0.207c-5.134,3.604-5.28,7.143-10.823,11.15l0.369-1.1c-1.164,0.84-2.215,1.494-2.235,2.552
						c-2.578-0.221-3.85,4.86-6.885,4.867c-2.509,1.708-1.567,3.005-3.159,4.781c-0.278-0.32-0.252-1.386-1.303-0.727
						c-2.704,2.786-5.346,5.346-8.089,7.94l-2.079,1.955c-0.472,0.435-0.384,0.381-0.511,0.515l-0.27,0.304l-1.229,1.364
						c-0.001-0.214,0.069-0.451,0.1-0.563c-0.153,0.104-0.299,0.252-0.45,0.439c-0.46-0.219-1.034-0.209-1.729-0.426
						c-0.341-0.104-0.699-0.253-1.02-0.457c-0.826-0.634-1.608-1.317-2.276-2.049c-0.829-0.357-3.028-1.748-2.91-0.666
						c0.753,0.771,0.258,1.582-0.175,1.983c-3.646-2.016-0.649-2.338-2.898-3.901c0.269-1.651,1.923,0.389,2.745-0.581l-3.599-1.853
						c-1.403-1.781-3.622-2.6-4.66-4.369c0.556,0.679,0.91-0.638,1.648,0.712c-0.207-0.093-0.158,0.076-0.368-0.013
						c2.438,2.229,1.815,0.638,4.269,2.289c-2.205-1.395-5.115-3.391-6.678-5.098c-0.245,1.069-1.693-0.882-2.586-0.825
						l-0.047-0.167c-0.274,0.323-1.551-0.376-1.969-0.559l0.363-1.315c-0.874-0.526-0.184,0.658-1.052,0.132
						c-1.278-0.697-5.255-3.89-4.685-5.116c-1.38-1.041-2.224-0.816-3.48-2.097c0.317-0.157,0.729,0.022,0.885-0.059
						c-2.728-2.65-6.555-5.343-8.813-8.233c-2.448-1.646-4.491-3.119-6.457-3.674c0.664,0.435,2.228,2.142,0.668,1.76
						c-0.94-0.11-1.74-1.047-2.815-1.662c0.636-0.31-1.958-2.464,0.194-1.236c0.451-1.479-4.187-3.184-3.244-4.236
						c-0.715-0.039-3.192-2.468-4.672-2.727c0.181-0.658,1.701,0.884,1.972,0.558l-1.33-0.869l0.273-0.323
						c-2.07-2.225-3.617-1.27-5.153-2.228l0.16-0.081l-1.076-0.613l1.828,0.053c-1.582-1.123-2.998-0.999-4.788-2.214l0.07-0.415
						l-1.242-0.538c0.209,0.092,0.371,0.015,0.327-0.151c-1.628,0.031-3.488-2.097-4.95-2.141c-0.552-0.678-0.239-2.168-1.703-2.211
						l1.027-0.878c2.292,1.727,0.205,1.411,2.823,2.985c-0.583-2.753-5.469-6.635-8.723-9.226c-3.137-1.5-6.428-6.163-8.802-5.575
						l0.796-0.389l-3.877-4.18c-3.879-2.856-7.251-6.524-10.754-8.044l-0.328-1.168c-4.365-0.712-10.455-7.62-14.132-7.147
						c-1.241-1.859,1.167-0.379,1.646-0.612c-1.061-1.194-4.24-1.538-4.589-3.458c0.273-0.322,1.949,1.136,1.351,0.29
						c-0.37-1.338-1.759-0.467-2.18-1.974c-0.088,0.991-2.723-0.001-4.3-1.125c0.25,0.257,0.25,0.257,0.303,0.427
						c-0.185,0.657-1.198-0.371-1.862-0.808c0,0,0.16-0.075,0.366,0.011c-8.272-5.637-17.285-12.63-24.77-19.989L56.802,58
						c-1.439-0.625-3.26-2.59-3.808-3.267l0.209,0.093c-1.313-2.778-3.206-1.097-3.901-3.605l0.41,0.174
						c-2.594-2.151-3.237-4.489-6.214-6.073c-1.659-2.044-1.021-2.358-2.01-3.962c-1.168-0.952-2.216-0.809-2.379-0.736l0.508,0.518
						c0.117,1.079-1.603-0.548-2.633-0.995c-0.157,1.404-1.662,2.522-0.139,5.391c1.946,1.137,0.424,2.835,2.463,4.308
						c2.102-0.269,1.982,3.21,4.631,3.622c-1.622,0.033,1.701,2.208-0.583,1.811c0.163,1.25,4.307,2.449,5.025,4.383
						c-0.373-0.012-0.484,0.229-0.896,0.054c2.317,1.15,0.829,1.684,2.252,2.888l0.661-0.892c0.781,0.191,0.442,0.927,1.055,1.194
						c-0.301-0.429-0.781-1.518-0.054-1.498c0.825,0.356,1.605,0.546,2.315,1.147c-0.266,0.33-0.887,0.059-1.305-0.122
						c0,0,1.473,1.376,1.245,1.864c-0.778-0.191-1.49-0.794-2.376-0.732c1.809,1.96-0.069,0.41,0.349,1.914
						c0.565-1.225,2.109,1.061,3.39,1.763c-0.226,0.493-0.873-0.525-1.396-0.456c0.608,3.505,3.373,2.344,5.735,4.984
						c-0.159,0.078-0.573-0.099-0.781-0.191c1.494,0.796,1.593,2.46,2.896,2.578c1.059,1.197-0.729,1.31,1.154,2.858
						c0.315-1.481,2.023,2.053,2.996,1.001l0.881,1.852c1.765,0.474,1.222-2.123,3.77-0.137c1.905,2.299-1.731,1.613-0.903,3.291
						l1.055-0.131l0.738,1.352l-0.21-0.091c0.825,0.359,1.879,1.548,1.61,1.872c-0.319,0.16-1.033-0.446-1.346-0.283
						c1.55,0.375,3.056,5.147,5.591,4.477c0.4,0.836,1.732,1.957,1.122,2.334c1.199-0.228,2.721,2.695,3.978,2.967
						c-0.323,0.154,0.164,1.249,0.986,1.608c-0.647-1.018,0.136-0.825,1.071-0.718c0.327,1.176,2.894,2.582,2.488,3.73
						c1.605,0.546,1.689-0.447,2.483-0.845c0.33,1.176,2.877,3.162,1.599,3.786c-0.556-0.679-1.865-2.132-2.155-1.226
						c0.945,1.437,0.778,0.188,1.898,0.967c-0.23,0.116,0.185,1.21-0.257,1.331c0.702,0.411,1.552,1.146,2.282,2.053
						c-0.982-1.606,1.463,0.042,0.98-1.049l-1.919-0.388c-1.63-1.297,0.128-0.829-0.26-1.587c2.96,2.164,3.273,0.678,6.296,2.428
						c0.346,0.589,0.989,1.604,1.243,1.864c-0.917-0.692-1.53,0.37-1.179,0.965c2.12,0.471,2.204,2.716,3.259,3.911
						c-0.854-1.106,0.2-1.236,0.772-1.137c2.976,1.583,0.691,1.181,1.43,2.533c3.962,3.184,5.417,6.467,9.057,8.483l-0.757-2.097
						l-1.166,0.379c-0.624-1.595,1.729-1.608,2.825-1.574c-0.064,0.414,1.978,1.887,0.833,1.687l2.156,1.229
						c0.019-0.583-1.312-1.453-0.125-1.091c0.4,0.767,2.162,2.559,0.561,2.015c0.963,0.856,2.45,1.648,2.633,0.992
						c1.626,1.293-1.028,0.88-2.008,0.604c1.213,1.113,0.463,1.67-0.107,1.573l1.83,1.38c-0.567-0.102-0.842,0.223-1.409,0.124
						c0.894,1.273,2.472,1.074,2.884,2.576l1.01-0.302c2.706,3.235,2.297,3.058,5.189,5.638l-0.07-0.917
						c2.996,1.001,0.963,2.187,4.287,4.362c1.949,1.135,3.235,1.839,3.687,0.854c1.232,0.533,1.054,1.196,1.242,1.868
						c1.142,0.198,3.478,0.764,4.26,2.28c-1.029-0.446-1.854-0.802-2.727-1.324c-0.449,0.98,2.479,2.396,3.419,3.833
						c1.194,0.367,4.86,1.808,7.031,2.453c-0.166-1.253,0.906-1.967,2.876-1.41c-0.64,0.313,1.495,2.123,2.179,3.302
						c-0.884,0.058,1.206,3.02-1.038,1.463c-0.393-0.756-0.098-1.663-1.132-2.109c0.073,0.916,0.905,2.604,1.892,4.209
						c-0.316,0.16-1.302-0.125-2.011-0.727C150.793,153.606,150.696,153.266,150.811,153.02z"/>
					<path fill="#EBF2F4" d="M349.578,50.958l-0.25,0.159l0.431-0.052C349.614,51.08,349.573,51.032,349.578,50.958z"/>
					<path fill="#EBF2F4" d="M196.796,192.521c0.2,0.113,0.58,0.238,0.613,0.094C197.159,192.514,196.932,192.451,196.796,192.521z"
						/>
					<path fill="#EBF2F4" d="M233.902,168.383c-0.093-0.042-0.158-0.106-0.23-0.163C233.69,168.289,233.75,168.347,233.902,168.383z
						"/>
					<path fill="#EBF2F4" d="M356.319,54.859l-0.388,0.617C356.126,55.312,356.14,55.147,356.319,54.859z"/>
				</g>
			</g>
		</g>
	</g>
</g>
</svg>
